STARTFONT 2.1
FONT -Monotype-Bookman Old Style-Regular-I-Normal--33-240-100-100-P-173-iso8859-9
SIZE 24 100 100
FONTBOUNDINGBOX 50 38 -8 -8

STARTPROPERTIES 24
FOUNDRY "Monotype"
FAMILY_NAME "Bookman Old Style"
WEIGHT_NAME "Regular"
SLANT "I"
SETWIDTH_NAME "Normal"
ADD_STYLE_NAME ""
PIXEL_SIZE 33
POINT_SIZE 240
RESOLUTION_X 100
RESOLUTION_Y 100
SPACING "P"
AVERAGE_WIDTH 173
CHARSET_REGISTRY "iso8859"
CHARSET_ENCODING "9"
FACE_NAME "Bookman Old Style Italic ISO Latin5"
_DEC_DEVICE_FONTNAMES "PS=bookmanoldstyle-it-lat5"
COPYRIGHT "Copyright (c) 1993 Monotype Typography Ltd."
CAP_HEIGHT 25
X_HEIGHT 18
WEIGHT 10
QUAD_WIDTH 24
DEFAULT_CHAR 160
FONT_DESCENT 8
FONT_ASCENT 30
ENDPROPERTIES

CHARS 191

STARTCHAR space
ENCODING 32
SWIDTH 300 0
DWIDTH 10 0
BBX 0 0 0 0
BITMAP
ENDCHAR

STARTCHAR exclam
ENCODING 33
SWIDTH 320 0
DWIDTH 11 0
BBX 8 23 4 0
BITMAP
07
0F
0F
0E
0E
0E
0E
1C
1C
1C
18
18
18
10
30
30
30
00
00
70
F0
F0
60
ENDCHAR

STARTCHAR quotedbl
ENCODING 34
SWIDTH 360 0
DWIDTH 12 0
BBX 8 8 6 15
BITMAP
61
63
E3
C3
C2
C6
86
84
ENDCHAR

STARTCHAR numbersign
ENCODING 35
SWIDTH 600 0
DWIDTH 20 0
BBX 16 22 4 0
BITMAP
030C
030C
020C
060C
0608
0618
0618
7FFF
7FFF
0C18
0C18
0C30
0C30
FFFE
FFFE
0830
1830
1830
1860
1860
1860
1860
ENDCHAR

STARTCHAR dollar
ENCODING 36
SWIDTH 620 0
DWIDTH 20 0
BBX 19 30 3 -4
BITMAP
000400
000C00
000C00
00FC00
03FF60
071BE0
0E18E0
1C18E0
1C1060
1C3060
1E3020
0F3000
07E000
03F800
00FE00
007F00
006780
4043C0
60C1C0
60C1C0
E0C1C0
F08180
F88380
DD8700
C7FE00
01F000
010000
030000
030000
020000
ENDCHAR

STARTCHAR percent
ENCODING 37
SWIDTH 800 0
DWIDTH 26 0
BBX 23 23 4 0
BITMAP
0F800C
18C018
306030
606060
6060C0
C06080
C06180
C0C300
C0C600
C18C00
631800
3C10F8
00318C
006306
00C606
018606
030C06
020C06
040C0C
0C0C0C
180C18
300630
6003C0
ENDCHAR

STARTCHAR ampersand
ENCODING 38
SWIDTH 820 0
DWIDTH 27 0
BBX 24 23 3 0
BITMAP
003800
00FE00
01C700
038300
030300
030300
030700
038600
01FC00
01E0FF
0F3818
1C1C18
380C30
700E30
E00E60
E007C6
E007C7
E00787
F00303
700783
3C19C6
1FF1FC
078078
ENDCHAR

STARTCHAR quoteright
ENCODING 39
SWIDTH 280 0
DWIDTH 9 0
BBX 6 9 6 15
BITMAP
18
3C
3C
1C
0C
18
38
70
C0
ENDCHAR

STARTCHAR parenleft
ENCODING 40
SWIDTH 280 0
DWIDTH 9 0
BBX 10 31 4 -7
BITMAP
00C0
0180
0380
0700
0600
0E00
0C00
1C00
1800
3800
3800
3000
7000
7000
7000
7000
E000
E000
E000
E000
E000
C000
C000
C000
C000
C000
C000
4000
6000
6000
3000
ENDCHAR

STARTCHAR parenright
ENCODING 41
SWIDTH 280 0
DWIDTH 9 0
BBX 10 31 0 -7
BITMAP
0300
0180
0180
0180
00C0
00C0
00C0
00C0
00C0
00C0
00C0
01C0
01C0
01C0
01C0
01C0
0380
0380
0380
0380
0700
0700
0600
0E00
0E00
0C00
1C00
3800
3000
6000
C000
ENDCHAR

STARTCHAR asterisk
ENCODING 42
SWIDTH 440 0
DWIDTH 15 0
BBX 12 12 6 11
BITMAP
0700
0700
4700
E600
F460
3EF0
06E0
1A00
7B00
7380
6380
0180
ENDCHAR

STARTCHAR plus
ENCODING 43
SWIDTH 600 0
DWIDTH 20 0
BBX 16 16 4 3
BITMAP
0180
0180
0180
0180
0180
0180
0180
FFFF
FFFF
0180
0180
0180
0180
0180
0180
0180
ENDCHAR

STARTCHAR comma
ENCODING 44
SWIDTH 300 0
DWIDTH 10 0
BBX 6 9 1 -5
BITMAP
18
3C
3C
1C
0C
18
38
70
C0
ENDCHAR

STARTCHAR minus
ENCODING 45
SWIDTH 600 0
DWIDTH 20 0
BBX 16 2 4 10
BITMAP
FFFF
FFFF
ENDCHAR

STARTCHAR period
ENCODING 46
SWIDTH 300 0
DWIDTH 10 0
BBX 4 4 3 0
BITMAP
70
F0
F0
60
ENDCHAR

STARTCHAR slash
ENCODING 47
SWIDTH 600 0
DWIDTH 20 0
BBX 18 28 1 -4
BITMAP
0001C0
000180
000300
000300
000600
000600
000C00
001C00
001800
003000
003000
006000
006000
00C000
01C000
018000
030000
030000
060000
0E0000
0C0000
1C0000
180000
300000
300000
600000
E00000
C00000
ENDCHAR

STARTCHAR zero
ENCODING 48
SWIDTH 620 0
DWIDTH 20 0
BBX 18 23 4 0
BITMAP
007C00
01FF00
078700
0E0380
1C0180
1C01C0
3801C0
3801C0
7001C0
7001C0
7001C0
6001C0
E00380
E00380
E00380
E00700
E00700
E00E00
600C00
701C00
387800
1FE000
078000
ENDCHAR

STARTCHAR one
ENCODING 49
SWIDTH 620 0
DWIDTH 20 0
BBX 11 23 6 0
BITMAP
0060
01E0
0FE0
0FE0
00C0
00C0
01C0
01C0
01C0
0180
0380
0380
0380
0300
0300
0700
0700
0700
0600
0E00
0E00
1E00
FFC0
ENDCHAR

STARTCHAR two
ENCODING 50
SWIDTH 620 0
DWIDTH 20 0
BBX 19 24 2 -1
BITMAP
007E00
01FF80
0787C0
0601C0
0C00E0
0800E0
1800E0
1800E0
1800E0
0001C0
0003C0
000380
000700
000E00
003800
007000
00E000
038000
070180
1C0100
300300
FFFF00
FFFE00
000200
ENDCHAR

STARTCHAR three
ENCODING 51
SWIDTH 620 0
DWIDTH 20 0
BBX 19 23 2 0
BITMAP
007F00
01FF80
0383C0
0301E0
0600E0
0400E0
0000E0
0000C0
0001C0
000780
00FE00
00FE00
000F00
000780
000380
000380
000380
E00380
E00700
E00700
700E00
3C3C00
0FF000
ENDCHAR

STARTCHAR four
ENCODING 52
SWIDTH 620 0
DWIDTH 20 0
BBX 18 23 3 0
BITMAP
000380
000780
000F00
001B00
007700
00E700
01C600
038600
060E00
0C0E00
180C00
300C00
401C00
FFFFC0
FFFFC0
001800
003800
003800
003800
003000
003000
007000
007000
ENDCHAR

STARTCHAR five
ENCODING 53
SWIDTH 620 0
DWIDTH 20 0
BBX 19 24 3 0
BITMAP
000020
03FFE0
03FFE0
060000
060000
060000
040000
0C0000
0C0000
0FF800
0FFE00
101F00
000700
000780
000380
000380
000380
400380
E00300
E00700
F00E00
703C00
3FF800
07C000
ENDCHAR

STARTCHAR six
ENCODING 54
SWIDTH 620 0
DWIDTH 20 0
BBX 18 24 4 0
BITMAP
0007C0
007FC0
01F000
03C000
0F0000
0E0000
1C0000
380000
39F800
77FE00
760F00
780700
F00380
F00380
E00380
E00380
E00380
E00380
E00700
700700
700E00
383C00
1FF000
03C000
ENDCHAR

STARTCHAR seven
ENCODING 55
SWIDTH 620 0
DWIDTH 20 0
BBX 18 24 6 0
BITMAP
100000
3FFFC0
3FFF80
600100
400200
C00600
800C00
001800
003000
007000
00E000
01C000
018000
038000
070000
070000
0E0000
0E0000
1C0000
1C0000
380000
380000
780000
700000
ENDCHAR

STARTCHAR eight
ENCODING 56
SWIDTH 620 0
DWIDTH 20 0
BBX 18 23 4 0
BITMAP
00F800
03FF00
070380
0E01C0
1C01C0
1C01C0
1C01C0
1E0380
0F0700
07CE00
03F800
077C00
1C3E00
300F00
600780
E00380
C00380
C00380
E00300
E00700
781E00
1FF800
07C000
ENDCHAR

STARTCHAR nine
ENCODING 57
SWIDTH 620 0
DWIDTH 20 0
BBX 18 24 4 -1
BITMAP
00F800
07FE00
0F0700
1C0380
380180
3801C0
7001C0
7001C0
7001C0
7001C0
7003C0
7803C0
380780
1C1D80
0FFB80
03C700
000700
000E00
001C00
003800
00F000
03E000
FF8000
F80000
ENDCHAR

STARTCHAR colon
ENCODING 58
SWIDTH 300 0
DWIDTH 10 0
BBX 7 16 3 0
BITMAP
0E
1E
1E
0C
00
00
00
00
00
00
00
00
60
F0
F0
60
ENDCHAR

STARTCHAR semicolon
ENCODING 59
SWIDTH 300 0
DWIDTH 10 0
BBX 9 22 1 -6
BITMAP
0380
0780
0780
0300
0000
0000
0000
0000
0000
0000
0000
0000
0800
3C00
3C00
3C00
0C00
1800
1800
7000
C000
8000
ENDCHAR

STARTCHAR less
ENCODING 60
SWIDTH 600 0
DWIDTH 20 0
BBX 14 14 5 3
BITMAP
000C
003C
01F8
07C0
1F00
7C00
E000
F000
3E00
0F80
03E0
00FC
001C
0004
ENDCHAR

STARTCHAR equal
ENCODING 61
SWIDTH 600 0
DWIDTH 20 0
BBX 16 7 4 8
BITMAP
FFFF
FFFF
0000
0000
0000
FFFF
FFFF
ENDCHAR

STARTCHAR greater
ENCODING 62
SWIDTH 600 0
DWIDTH 20 0
BBX 15 14 5 3
BITMAP
C000
F800
3E00
0F80
03E0
007C
000E
003E
00F8
07E0
1F00
7C00
F000
C000
ENDCHAR

STARTCHAR question
ENCODING 63
SWIDTH 540 0
DWIDTH 18 0
BBX 15 23 5 0
BITMAP
0FC0
3FF0
7838
701C
600C
000E
000E
000E
000E
001C
003C
00F8
1FE0
1F00
1000
3000
3000
0000
0000
6000
F000
F000
6000
ENDCHAR

STARTCHAR at
ENCODING 64
SWIDTH 780 0
DWIDTH 26 0
BBX 28 30 1 -7
BITMAP
000FF000
00700C00
01C00200
03000100
06000080
0C000040
18000040
30039820
300C5820
60183820
60383820
40703020
40603020
C0E07020
C0C06060
C0C0E040
C1C0E040
C1C16080
41C2C180
41C4C300
60F8C610
2070F830
30000020
10000060
180000C0
0C000180
06000300
03800600
00E03800
001FC000
ENDCHAR

STARTCHAR A
ENCODING 65
SWIDTH 700 0
DWIDTH 23 0
BBX 23 23 0 0
BITMAP
0001C0
0003C0
0003C0
0006C0
000CC0
000CE0
0018E0
0018E0
0030E0
0070E0
006060
00E070
00C070
01FFF0
01FFF0
030070
070030
060038
0C0038
0C0038
180038
3C003C
FF01FE
ENDCHAR

STARTCHAR B
ENCODING 66
SWIDTH 720 0
DWIDTH 24 0
BBX 24 23 2 0
BITMAP
0FFFF8
03FFFC
01C01E
01C007
01C007
018007
038007
03800E
03801E
03003C
07FFE0
07FFF0
060078
06003C
06001C
0E001C
0C001C
0C001C
0C0038
1C0078
1C01F0
FFFFC0
FFFE00
ENDCHAR

STARTCHAR C
ENCODING 67
SWIDTH 720 0
DWIDTH 24 0
BBX 22 23 4 0
BITMAP
003F00
01FFCC
03C07C
0F003C
1E001C
1C001C
38000C
78000C
700000
F00000
F00000
F00000
E00000
E00000
E00000
E00000
F00018
700030
780060
3C01C0
1F0780
0FFE00
03F800
ENDCHAR

STARTCHAR D
ENCODING 68
SWIDTH 740 0
DWIDTH 24 0
BBX 25 23 1 0
BITMAP
07FFE000
01FFF800
00E03E00
00E00E00
01C00700
01C00780
01C00380
01C00380
01800380
03800380
03800380
03800380
03800780
07000700
07000700
07000F00
07000E00
06001C00
0E003C00
0E007800
0E03E000
7FFF8000
FFFC0000
ENDCHAR

STARTCHAR E
ENCODING 69
SWIDTH 680 0
DWIDTH 22 0
BBX 23 23 1 0
BITMAP
07FFFC
01FFFC
00E01C
00C00E
01C006
01C002
01C0C2
01C0C0
0380C0
038180
03FF80
03FF80
030380
070100
070100
070306
07000C
0E000C
0E0018
0E0038
0E00F0
7FFFF0
FFFFE0
ENDCHAR

STARTCHAR F
ENCODING 70
SWIDTH 620 0
DWIDTH 20 0
BBX 23 23 1 0
BITMAP
07FFFC
03FFFC
00E01C
00C00C
01C006
01C006
01C002
01C0C0
038080
038180
038380
03FF80
03FF80
070300
070300
070300
070000
0E0000
0E0000
0E0000
0E0000
1E0000
FF8000
ENDCHAR

STARTCHAR G
ENCODING 71
SWIDTH 760 0
DWIDTH 25 0
BBX 24 23 4 0
BITMAP
003F00
00FFC8
03C0F8
070038
0E0018
1C0018
3C000C
78000C
700000
700000
F00000
F00000
E003FF
E00078
E00070
E00070
F00070
F00070
7800E0
3801E0
1E07E0
0FFE60
03F840
ENDCHAR

STARTCHAR H
ENCODING 72
SWIDTH 800 0
DWIDTH 26 0
BBX 29 23 1 0
BITMAP
07FC0FF8
01F003E0
00E001C0
00C00180
01C00380
01C00380
01C00380
01C00380
03800700
03800700
03FFFF00
03FFFF00
03000E00
07000E00
07000E00
07000E00
07000E00
0E001C00
0E001C00
0E001C00
0E001C00
1E003C00
FF81FF00
ENDCHAR

STARTCHAR I
ENCODING 73
SWIDTH 320 0
DWIDTH 11 0
BBX 14 23 1 0
BITMAP
07FC
01E0
01C0
01C0
01C0
01C0
0380
0380
0380
0380
0300
0700
0700
0700
0700
0600
0E00
0E00
0E00
0C00
1C00
3E00
FF80
ENDCHAR

STARTCHAR J
ENCODING 74
SWIDTH 560 0
DWIDTH 18 0
BBX 22 23 1 0
BITMAP
0007FC
0001F0
0000E0
0000C0
0001C0
0001C0
0001C0
0001C0
000380
000380
000380
000380
000300
000700
600700
700700
F00700
E00E00
E00E00
601C00
707800
3FF000
0FC000
ENDCHAR

STARTCHAR K
ENCODING 75
SWIDTH 720 0
DWIDTH 24 0
BBX 27 23 1 0
BITMAP
07FC3FE0
01F00F00
00E00E00
00E01C00
01C03000
01C0E000
01C1C000
01C38000
01870000
038E0000
039E0000
03B70000
03E70000
07C78000
07838000
0703C000
0701C000
0601E000
0E00E000
0E00F000
0E007000
1E00F800
FFC3FE00
ENDCHAR

STARTCHAR L
ENCODING 76
SWIDTH 580 0
DWIDTH 19 0
BBX 20 23 1 0
BITMAP
07FC00
01E000
00E000
01C000
01C000
01C000
01C000
018000
038000
038000
038000
038000
030000
070000
070000
070030
060020
0E0060
0E00C0
0E01C0
1E0780
7FFF80
FFFF80
ENDCHAR

STARTCHAR M
ENCODING 77
SWIDTH 860 0
DWIDTH 28 0
BBX 31 23 1 0
BITMAP
07F000FE
01F001F8
01D801B0
01B80360
01B802E0
01B806E0
01B80CE0
01380CE0
033819C0
031819C0
031831C0
031831C0
061C61C0
061C6380
061CC380
061CC380
061D8380
0C1D0300
0C1F0700
0C0E0700
0C0E0700
1C0C0F00
FF0C7FE0
ENDCHAR

STARTCHAR N
ENCODING 78
SWIDTH 720 0
DWIDTH 24 0
BBX 27 23 1 0
BITMAP
07F01FE0
01F80780
00D80300
00980600
019C0600
019C0600
018C0600
018E0600
030E0C00
03070C00
03070C00
03070C00
02038800
06039800
06039800
0601D800
0601D800
0C01F000
0C00F000
0C00F000
0C00F000
1C006000
FF006000
ENDCHAR

STARTCHAR O
ENCODING 79
SWIDTH 760 0
DWIDTH 25 0
BBX 23 23 4 0
BITMAP
003F80
00FFE0
03C0F0
070038
0E001C
1C001C
38000E
78000E
70000E
70000E
F0000E
E0000E
E0001E
E0001E
E0001C
E0003C
E00038
700070
7000E0
3801C0
1E0780
0FFE00
01F000
ENDCHAR

STARTCHAR P
ENCODING 80
SWIDTH 600 0
DWIDTH 20 0
BBX 22 23 1 0
BITMAP
07FFC0
01FFF0
00E078
01C03C
01C01C
01C01C
01C01C
01801C
038038
038078
0380F0
03FFE0
07FF00
070000
070000
070000
060000
0E0000
0E0000
0E0000
0E0000
1E0000
FF8000
ENDCHAR

STARTCHAR Q
ENCODING 81
SWIDTH 780 0
DWIDTH 26 0
BBX 23 29 4 -6
BITMAP
003F80
00FFE0
03C0F0
070038
0E001C
1C001C
3C000E
78000E
70000E
70000E
F0000E
F0000E
E0001E
E0001E
E0001C
E0003C
E00038
F00078
7000F0
7801E0
3C03C0
1F0F00
07FC00
01C000
01C000
01C000
01E1C0
00FF80
007E00
ENDCHAR

STARTCHAR R
ENCODING 82
SWIDTH 700 0
DWIDTH 23 0
BBX 23 23 2 0
BITMAP
0FFFF0
03FFFC
01C03C
01C01E
01800E
03800E
03800E
03801E
03801C
070078
07FFF0
07FF80
071C00
060E00
0E0E00
0E0700
0E0700
0E0380
1C0380
1C01C0
1C01E0
3E00F0
FF80FC
ENDCHAR

STARTCHAR S
ENCODING 83
SWIDTH 640 0
DWIDTH 21 0
BBX 20 23 3 0
BITMAP
007E10
03FFB0
0701F0
0E00F0
0C0070
1C0030
1C0030
1E0000
0F0000
07E000
03F800
00FF00
001F80
0003C0
4001E0
4000E0
E000E0
E000E0
F001C0
F801C0
EE0780
CFFE00
81F800
ENDCHAR

STARTCHAR T
ENCODING 84
SWIDTH 600 0
DWIDTH 20 0
BBX 20 24 4 0
BITMAP
100020
3FFFE0
3C71E0
707070
607030
C0E030
C0E030
00E000
00E000
00C000
01C000
01C000
01C000
01C000
018000
038000
038000
038000
038000
070000
070000
070000
0F8000
7FE000
ENDCHAR

STARTCHAR U
ENCODING 85
SWIDTH 720 0
DWIDTH 24 0
BBX 24 23 5 0
BITMAP
FFC0FF
1E0038
1C0030
1C0030
180030
380030
380060
380060
380060
700060
7000C0
7000C0
7000C0
6000C0
E00080
E00180
E00180
E00300
E00300
700600
7C1C00
1FF800
0FE000
ENDCHAR

STARTCHAR V
ENCODING 86
SWIDTH 680 0
DWIDTH 22 0
BBX 22 23 5 0
BITMAP
FF01FC
7C0078
380060
380060
3800C0
1C00C0
1C0180
1C0380
1C0300
1C0600
1C0600
1C0C00
0E0C00
0E1800
0E1800
0E3000
0E3000
0E6000
06C000
07C000
078000
078000
070000
ENDCHAR

STARTCHAR W
ENCODING 87
SWIDTH 960 0
DWIDTH 32 0
BBX 31 23 5 0
BITMAP
FF1FF0FE
3C07803C
38038038
38038030
38038060
1C038060
1C0780C0
1C0780C0
1C0D8180
1C0D8180
1C1B8300
1C1B8300
1C318600
1C318600
1C61CC00
0C61CC00
0CC1D800
0CC1D800
0F81F000
0F81F000
0F01E000
0F01E000
0E01C000
ENDCHAR

STARTCHAR X
ENCODING 88
SWIDTH 700 0
DWIDTH 23 0
BBX 27 23 0 0
BITMAP
03FC1FE0
01F00780
00F00600
00700C00
00781800
00383000
00386000
001CE000
001DC000
000F8000
00070000
000F0000
001F8000
003B8000
0073C000
00E1C000
01C1E000
0380E000
0700F000
0E007000
0C007800
3C007C00
FF01FE00
ENDCHAR

STARTCHAR Y
ENCODING 89
SWIDTH 660 0
DWIDTH 22 0
BBX 22 23 5 0
BITMAP
FF03FC
3800F0
3C00E0
1C01C0
1C0380
1E0300
0E0600
0E0E00
071C00
071800
073000
03A000
03E000
01C000
01C000
018000
038000
038000
038000
038000
070000
0F8000
3FE000
ENDCHAR

STARTCHAR Z
ENCODING 90
SWIDTH 580 0
DWIDTH 19 0
BBX 22 23 1 0
BITMAP
03FFFC
07FFF8
078070
0E00F0
0C01E0
1803C0
180780
000F00
001E00
001C00
003800
007800
00F000
01E000
03C000
078030
0F0060
1E00E0
1C00C0
3C03C0
700F80
FFFF80
FFFF00
ENDCHAR

STARTCHAR bracketleft
ENCODING 91
SWIDTH 260 0
DWIDTH 9 0
BBX 12 32 1 -8
BITMAP
01F0
01F0
0180
0380
0380
0300
0300
0300
0700
0600
0600
0600
0E00
0C00
0C00
0C00
0C00
1C00
1800
1800
1800
3800
3000
3000
3000
7000
7000
6000
6000
6000
F800
F800
ENDCHAR

STARTCHAR backslash
ENCODING 92
SWIDTH 600 0
DWIDTH 20 0
BBX 19 28 2 -4
BITMAP
E00000
600000
300000
300000
180000
1C0000
0C0000
060000
060000
030000
038000
018000
01C000
00C000
006000
006000
003000
003800
001800
000C00
000C00
000600
000600
000300
000380
000180
0000C0
0000E0
ENDCHAR

STARTCHAR bracketright
ENCODING 93
SWIDTH 260 0
DWIDTH 9 0
BBX 12 32 -1 -8
BITMAP
01F0
01E0
0060
0060
00E0
00E0
00C0
00C0
00C0
01C0
0180
0180
0180
0380
0300
0300
0300
0700
0700
0600
0600
0600
0E00
0C00
0C00
0C00
1C00
1C00
1800
1800
F800
F800
ENDCHAR

STARTCHAR asciicircum
ENCODING 94
SWIDTH 600 0
DWIDTH 20 0
BBX 16 13 4 10
BITMAP
01C0
03C0
03E0
0760
0670
0E30
0C38
1C18
181C
300C
3006
6006
E003
ENDCHAR

STARTCHAR underscore
ENCODING 95
SWIDTH 500 0
DWIDTH 17 0
BBX 17 2 0 -4
BITMAP
FFFF80
FFFF80
ENDCHAR

STARTCHAR quoteleft
ENCODING 96
SWIDTH 280 0
DWIDTH 9 0
BBX 6 10 6 14
BITMAP
04
1C
30
60
40
C0
F0
F0
F0
60
ENDCHAR

STARTCHAR a
ENCODING 97
SWIDTH 620 0
DWIDTH 20 0
BBX 19 16 3 0
BITMAP
01E180
07FB00
1E0F00
1C0700
380700
700600
700600
E00E00
E00E00
E01E00
E01C00
E02C00
E06C60
70DCC0
3F8F80
1E0700
ENDCHAR

STARTCHAR b
ENCODING 98
SWIDTH 600 0
DWIDTH 20 0
BBX 17 24 3 0
BITMAP
030000
1F0000
3E0000
0E0000
0E0000
0E0000
0C0000
0C0000
1C3C00
1CFF00
1D8700
1B0380
3E0380
3C0380
380380
380380
300700
700700
700700
600E00
601C00
F07C00
DFF000
C7C000
ENDCHAR

STARTCHAR c
ENCODING 99
SWIDTH 480 0
DWIDTH 16 0
BBX 15 16 3 0
BITMAP
01F0
07FC
0E1E
1C0E
380E
700C
7000
E000
E000
E000
E000
E004
700C
7838
3FE0
0F80
ENDCHAR

STARTCHAR d
ENCODING 100
SWIDTH 640 0
DWIDTH 21 0
BBX 20 24 3 0
BITMAP
000030
0001E0
0007E0
0000E0
0000E0
0000C0
0000C0
0001C0
01F1C0
07FD80
0F0780
1C0380
380380
780380
700300
700700
E00700
E00F00
E01600
E01E00
E03610
70EE60
3F87C0
1E0380
ENDCHAR

STARTCHAR e
ENCODING 101
SWIDTH 540 0
DWIDTH 18 0
BBX 16 16 3 0
BITMAP
00F8
03FE
0F07
1C07
3807
700E
703C
E3F0
FF00
E000
E000
E002
700E
7838
3FF0
0F80
ENDCHAR

STARTCHAR f
ENCODING 102
SWIDTH 340 0
DWIDTH 11 0
BBX 21 31 -3 -7
BITMAP
0001E0
0003F8
000638
000C18
000C00
001C00
001800
001800
01FF80
01FF00
003800
003000
003000
007000
007000
006000
006000
00E000
00E000
00E000
00C000
00C000
01C000
01C000
018000
018000
038000
030000
E70000
FE0000
780000
ENDCHAR

STARTCHAR g
ENCODING 103
SWIDTH 560 0
DWIDTH 18 0
BBX 18 23 2 -7
BITMAP
00F8C0
03FEC0
0707C0
0E0180
1C0180
380380
380380
700300
700700
700F00
700F00
701B00
703600
386E00
1FCE00
0F0E00
000C00
001C00
C01800
E03800
F07000
7FC000
1F0000
ENDCHAR

STARTCHAR h
ENCODING 104
SWIDTH 620 0
DWIDTH 20 0
BBX 19 24 3 0
BITMAP
030000
1F0000
3E0000
0E0000
0E0000
0E0000
0C0000
0C0000
1C3C00
1CFE00
1D8700
1B0700
3E0700
3C0600
3C0600
380E00
380E00
700C00
700C00
701C00
601C60
E01CC0
E00F80
E00600
ENDCHAR

STARTCHAR i
ENCODING 105
SWIDTH 280 0
DWIDTH 9 0
BBX 8 24 3 0
BITMAP
06
0F
0F
06
00
00
00
00
0C
FC
FC
1C
38
38
38
30
70
70
70
E0
E1
E3
7E
38
ENDCHAR

STARTCHAR j
ENCODING 106
SWIDTH 280 0
DWIDTH 9 0
BBX 16 31 -4 -7
BITMAP
0006
000F
000F
0006
0000
0000
0000
0000
000C
00FC
00FC
0018
0018
0038
0038
0038
0030
0070
0070
0070
0060
00E0
00E0
00E0
00C0
01C0
01C0
C180
E380
FF00
3800
ENDCHAR

STARTCHAR k
ENCODING 107
SWIDTH 600 0
DWIDTH 20 0
BBX 19 24 3 0
BITMAP
030000
0F0000
3F0000
060000
060000
0E0000
0E0000
0E0000
0C0F80
1C3FC0
1C61C0
1CC000
19C000
1BC000
3AC000
3CE000
3CE000
387000
787000
703000
703860
6018C0
E01F80
E00F00
ENDCHAR

STARTCHAR l
ENCODING 108
SWIDTH 280 0
DWIDTH 9 0
BBX 8 24 3 0
BITMAP
06
7E
7E
0E
0C
0C
1C
1C
1C
18
38
38
38
30
30
70
70
70
60
E0
E3
E6
7C
30
ENDCHAR

STARTCHAR m
ENCODING 109
SWIDTH 880 0
DWIDTH 29 0
BBX 27 16 4 0
BITMAP
0C783C00
FDFC7E00
F90EC700
1E0F0700
1C0F0700
3C0E0600
380E0600
381C0E00
381C0E00
701C0E00
70180C00
70380C00
60381C60
E0381CC0
E0300F80
E0700600
ENDCHAR

STARTCHAR n
ENCODING 110
SWIDTH 620 0
DWIDTH 20 0
BBX 19 16 3 0
BITMAP
0C3C00
FCFE00
FD8700
1B0700
1E0700
3C0600
3C0600
380E00
380E00
700E00
700C00
701C00
601C60
601CC0
E00F80
E00700
ENDCHAR

STARTCHAR o
ENCODING 111
SWIDTH 540 0
DWIDTH 18 0
BBX 16 16 3 0
BITMAP
01F0
07FC
1E0E
3C0E
3807
7007
7007
E007
E007
E00E
E00E
E01C
703C
7878
3FE0
0780
ENDCHAR

STARTCHAR p
ENCODING 112
SWIDTH 600 0
DWIDTH 20 0
BBX 22 23 -1 -7
BITMAP
0061E0
07E7F8
07CC38
00D81C
01F01C
01E01C
01C01C
01C01C
01801C
038038
038038
030070
0300E0
0781C0
077F80
073E00
060000
0E0000
0E0000
0E0000
0E0000
1E0000
FFC000
ENDCHAR

STARTCHAR q
ENCODING 113
SWIDTH 560 0
DWIDTH 18 0
BBX 17 23 3 -7
BITMAP
01F180
07FD80
0E0780
1C0300
380300
700700
700700
F00600
E00E00
E00E00
E01E00
E03600
E06C00
70CC00
7F9C00
1E1C00
001800
001800
003800
003800
003800
007800
03FE00
ENDCHAR

STARTCHAR r
ENCODING 114
SWIDTH 400 0
DWIDTH 13 0
BBX 12 16 4 0
BITMAP
1C70
F9F0
FBF0
3B00
3400
3C00
3800
7800
7000
7000
7000
6000
E000
E000
E000
C000
ENDCHAR

STARTCHAR s
ENCODING 115
SWIDTH 540 0
DWIDTH 18 0
BBX 16 16 2 0
BITMAP
01F0
0FFE
1C0F
1807
1803
1C00
0F00
07E0
01F8
007E
000E
E006
F006
700E
3C3C
0FF0
ENDCHAR

STARTCHAR t
ENCODING 116
SWIDTH 340 0
DWIDTH 11 0
BBX 10 21 4 0
BITMAP
0600
0400
0C00
1C00
3C00
FFC0
DFC0
3800
3800
3800
3000
3000
7000
7000
6000
6000
E000
E180
E300
7E00
3800
ENDCHAR

STARTCHAR u
ENCODING 117
SWIDTH 620 0
DWIDTH 20 0
BBX 19 16 3 0
BITMAP
040000
1C0380
FC0300
1C0700
1C0700
180700
180600
380E00
380E00
301E00
300C00
703C00
706C20
70DCC0
3F8F80
1E0700
ENDCHAR

STARTCHAR v
ENCODING 118
SWIDTH 540 0
DWIDTH 18 0
BBX 16 17 3 0
BITMAP
0002
0E07
7C07
FC07
1C03
1803
1803
1806
3806
380C
300C
3018
7030
7060
70C0
3F80
1E00
ENDCHAR

STARTCHAR w
ENCODING 119
SWIDTH 880 0
DWIDTH 29 0
BBX 27 17 3 0
BITMAP
000000C0
1E0180E0
FC0380E0
1C0380E0
1C038060
1C030060
18070060
380700C0
380700C0
380E00C0
300E0180
301E0300
70360300
706E0600
70CE1C00
3F87F000
1E03C000
ENDCHAR

STARTCHAR x
ENCODING 120
SWIDTH 540 0
DWIDTH 18 0
BBX 19 16 1 0
BITMAP
0300E0
0F83E0
1F87E0
018C00
01C800
01D800
00F000
00E000
01E000
017000
037000
063000
0C3840
FC38C0
F81F80
600F00
ENDCHAR

STARTCHAR y
ENCODING 121
SWIDTH 600 0
DWIDTH 20 0
BBX 18 23 2 -7
BITMAP
030000
0E00C0
7E01C0
0E01C0
0E01C0
0C0180
0C0380
1C0380
1C0780
180700
180F00
381B00
383700
386600
1FCE00
0F0E00
000E00
000C00
401C00
E03800
F07000
7FE000
0F0000
ENDCHAR

STARTCHAR z
ENCODING 122
SWIDTH 520 0
DWIDTH 17 0
BBX 18 16 1 0
BITMAP
07C040
0FFFC0
1C0780
3C0F00
181E00
083C00
007800
00F000
01C000
038000
0F0100
1E0380
3C0380
780380
FF8F00
83FC00
ENDCHAR

STARTCHAR braceleft
ENCODING 123
SWIDTH 360 0
DWIDTH 12 0
BBX 13 30 4 -7
BITMAP
0038
0040
0180
0300
0300
0700
0700
0700
0700
0700
0600
0600
0C00
1800
6000
E000
3000
1800
1800
1800
3800
3800
3000
7000
6000
6000
6000
2000
3000
0C00
ENDCHAR

STARTCHAR bar
ENCODING 124
SWIDTH 600 0
DWIDTH 20 0
BBX 2 32 11 -7
BITMAP
C0
C0
C0
C0
C0
C0
C0
C0
C0
C0
C0
C0
C0
C0
C0
C0
C0
C0
C0
C0
C0
C0
C0
C0
C0
C0
C0
C0
C0
C0
C0
C0
ENDCHAR

STARTCHAR braceright
ENCODING 125
SWIDTH 380 0
DWIDTH 13 0
BBX 13 30 -1 -7
BITMAP
0180
0060
0020
0030
0030
0030
0070
0070
00E0
00E0
00C0
00C0
00C0
0060
0038
0030
0040
0180
0300
0300
0300
0700
0700
0700
0700
0600
0600
0C00
1800
E000
ENDCHAR

STARTCHAR asciitilde
ENCODING 126
SWIDTH 600 0
DWIDTH 20 0
BBX 15 6 5 8
BITMAP
0004
3C06
7F0C
E3FC
C0F0
4000
ENDCHAR

STARTCHAR space
ENCODING 160
SWIDTH 300 0
DWIDTH 11 0
BBX 0 0 0 0
BITMAP
ENDCHAR

STARTCHAR exclamdown
ENCODING 161
SWIDTH 320 0
DWIDTH 11 0
BBX 8 23 2 -7
BITMAP
07
0F
0F
06
00
00
0C
0C
0C
18
18
18
18
38
38
38
70
70
70
70
F0
F0
E0
ENDCHAR

STARTCHAR cent
ENCODING 162
SWIDTH 620 0
DWIDTH 20 0
BBX 15 23 6 0
BITMAP
0020
0060
0060
0040
03F0
0F7C
1CCE
38CE
708E
7080
E180
E180
E100
E100
E300
730C
7218
3EF0
1FC0
0600
0600
0400
0C00
ENDCHAR

STARTCHAR sterling
ENCODING 163
SWIDTH 620 0
DWIDTH 20 0
BBX 21 23 1 0
BITMAP
000FC0
003FF0
007838
00E018
00E018
01C008
01C000
01C000
01C000
1FFF00
1FFF00
00C000
00C000
00C000
00C010
3CC018
7EC010
C38030
C0C070
C1F0E0
E37FC0
7E3F80
3C0F00
ENDCHAR

STARTCHAR currency
ENCODING 164
SWIDTH 600 0
DWIDTH 20 0
BBX 17 17 4 3
BITMAP
200100
E3E380
7FFF00
3C1E00
380E00
300600
600300
600300
600300
600300
700300
300600
380E00
3C1E00
FFFB80
63E300
200100
ENDCHAR

STARTCHAR yen
ENCODING 165
SWIDTH 620 0
DWIDTH 20 0
BBX 23 23 3 0
BITMAP
7FC1FE
1E0078
0E0070
0E0060
0F00C0
070180
070380
038300
038600
038C00
01DC00
01D000
7FFFE0
7FFFC0
00E000
00E000
00C000
FFFFC0
FFFF80
01C000
01C000
03C000
1FF000
ENDCHAR

STARTCHAR brokenbar
ENCODING 166
SWIDTH 600 0
DWIDTH 20 0
BBX 2 32 11 -8
BITMAP
C0
C0
C0
C0
C0
C0
C0
C0
C0
C0
C0
C0
C0
C0
80
00
00
40
C0
C0
C0
C0
C0
C0
C0
C0
C0
C0
C0
C0
C0
C0
ENDCHAR

STARTCHAR section
ENCODING 167
SWIDTH 620 0
DWIDTH 20 0
BBX 17 29 3 -6
BITMAP
007800
03FE00
070780
060380
0E0380
0E0180
0E0000
070000
07E000
03F800
0E7E00
181E00
380700
300300
300300
380300
380600
1E0600
1FCC00
07F800
00F800
001C00
400E00
C00E00
C00E00
E00C00
601C00
787800
1FE000
ENDCHAR

STARTCHAR dieresis
ENCODING 168
SWIDTH 420 0
DWIDTH 14 0
BBX 9 4 7 18
BITMAP
6380
F780
F780
6300
ENDCHAR

STARTCHAR copyright
ENCODING 169
SWIDTH 740 0
DWIDTH 24 0
BBX 23 23 3 -1
BITMAP
00FE00
038180
0C0060
180030
307E98
21C188
430084
470084
C60042
8E0002
8E0002
8E0002
8E0002
8E0002
860002
470044
438084
21C308
307C18
180030
0C0060
038180
00FE00
ENDCHAR

STARTCHAR ordfeminine
ENCODING 170
SWIDTH 440 0
DWIDTH 15 0
BBX 13 10 5 13
BITMAP
1FA0
38E0
7060
60E0
E0C0
C0C0
C1C0
C380
E6D8
7CE0
ENDCHAR

STARTCHAR guillemotleft
ENCODING 171
SWIDTH 300 0
DWIDTH 10 0
BBX 9 12 3 2
BITMAP
1980
3300
3300
6600
EE00
DC00
CC00
CC00
CC00
CC00
4400
4400
ENDCHAR

STARTCHAR logicalnot
ENCODING 172
SWIDTH 600 0
DWIDTH 20 0
BBX 16 7 4 8
BITMAP
FFFF
FFFF
0003
0003
0003
0003
0003
ENDCHAR

STARTCHAR hyphen
ENCODING 173
SWIDTH 320 0
DWIDTH 11 0
BBX 9 2 3 7
BITMAP
FF80
FF00
ENDCHAR

STARTCHAR registered
ENCODING 174
SWIDTH 740 0
DWIDTH 24 0
BBX 23 23 3 -1
BITMAP
00FE00
030180
0C0060
180030
37F818
218E08
418704
418704
818702
818602
818E02
81F802
819802
819C02
C18C02
418604
418704
27E3C8
100018
180030
040060
038380
00FE00
ENDCHAR

STARTCHAR macron
ENCODING 175
SWIDTH 440 0
DWIDTH 15 0
BBX 10 2 7 19
BITMAP
7FC0
FF80
ENDCHAR

STARTCHAR degree
ENCODING 176
SWIDTH 400 0
DWIDTH 13 0
BBX 9 9 7 14
BITMAP
1C00
7F00
6300
C180
C180
C180
6300
3F00
1C00
ENDCHAR

STARTCHAR plusminus
ENCODING 177
SWIDTH 600 0
DWIDTH 20 0
BBX 16 19 4 2
BITMAP
0180
0180
0180
0180
0180
0180
0180
FFFF
FFFF
0180
0180
0180
0180
0180
0180
0180
0000
FFFF
FFFF
ENDCHAR

STARTCHAR twosuperior
ENCODING 178
SWIDTH 372 0
DWIDTH 12 0
BBX 12 13 3 10
BITMAP
0FC0
1870
3030
2030
2030
0060
00C0
0380
0600
1820
7040
FFC0
0080
ENDCHAR

STARTCHAR threesuperior
ENCODING 179
SWIDTH 372 0
DWIDTH 12 0
BBX 11 12 4 11
BITMAP
0FC0
18E0
3060
0060
00C0
0F00
01C0
00C0
80C0
C1C0
E380
3E00
ENDCHAR

STARTCHAR acute
ENCODING 180
SWIDTH 320 0
DWIDTH 11 0
BBX 6 5 7 18
BITMAP
08
1C
3C
F0
C0
ENDCHAR

STARTCHAR mu
ENCODING 181
SWIDTH 620 0
DWIDTH 20 0
BBX 18 21 1 -5
BITMAP
0381C0
0301C0
0701C0
070180
070380
060380
0E0380
0E0300
0E0700
0E0700
1C0700
1C0700
1C1E00
2E3780
2FCF80
278600
600000
600000
E00000
E00000
E00000
ENDCHAR

STARTCHAR paragraph
ENCODING 182
SWIDTH 620 0
DWIDTH 20 0
BBX 15 29 5 -6
BITMAP
1FFE
7F98
7F98
FF98
FF98
FF98
FF98
FF98
FF98
7F98
3F98
0198
0198
0198
0198
0198
0198
0198
0198
0198
0198
0198
0198
0198
0198
0198
0198
0198
0198
ENDCHAR

STARTCHAR periodcentered
ENCODING 183
SWIDTH 300 0
DWIDTH 10 0
BBX 4 4 6 9
BITMAP
70
F0
F0
60
ENDCHAR

STARTCHAR cedilla
ENCODING 184
SWIDTH 320 0
DWIDTH 11 0
BBX 6 6 0 -6
BITMAP
20
78
0C
8C
98
F0
ENDCHAR

STARTCHAR onesuperior
ENCODING 185
SWIDTH 372 0
DWIDTH 12 0
BBX 8 12 5 11
BITMAP
07
1E
06
06
06
0C
0C
0C
08
18
18
FE
ENDCHAR

STARTCHAR ordmasculine
ENCODING 186
SWIDTH 400 0
DWIDTH 13 0
BBX 10 10 5 13
BITMAP
1F00
3180
60C0
E0C0
C0C0
C0C0
C1C0
C180
6300
3E00
ENDCHAR

STARTCHAR guillemotright
ENCODING 187
SWIDTH 300 0
DWIDTH 10 0
BBX 9 12 2 2
BITMAP
1100
1100
1900
1980
1980
1980
1980
3B80
3300
6600
CC00
4400
ENDCHAR

STARTCHAR onequarter
ENCODING 188
SWIDTH 930 0
DWIDTH 31 0
BBX 26 23 5 0
BITMAP
07000600
1E000C00
06000800
06001800
06003000
0C006000
0C00C000
0C018000
08010000
18020000
18060000
FE0C0180
00180380
00300780
00601980
00403300
00C06300
0180C300
0301FFC0
06000600
0C000600
08000600
38000C00
ENDCHAR

STARTCHAR onehalf
ENCODING 189
SWIDTH 930 0
DWIDTH 31 0
BBX 26 24 5 -1
BITMAP
06000600
3E000C00
0C001800
0C003000
0C006000
0C004000
1800C000
18018000
18030000
10060000
300C0000
FC083F00
001861C0
0030C0C0
006080C0
00C080C0
01800180
01000300
02000E00
06001800
0C006080
18018100
3003FF00
00000200
ENDCHAR

STARTCHAR threequarters
ENCODING 190
SWIDTH 930 0
DWIDTH 31 0
BBX 27 23 4 0
BITMAP
0FC00180
18E00300
30600600
00600C00
00C00800
0F001800
01C03000
00C06000
80C0C000
C1C18000
E3810000
3E0300E0
000601C0
000C03C0
001804C0
003018C0
00203180
00406180
00C0FFE0
01800180
03000300
06000300
0C000300
ENDCHAR

STARTCHAR questiondown
ENCODING 191
SWIDTH 540 0
DWIDTH 18 0
BBX 15 23 3 -7
BITMAP
000E
001E
001E
000C
0000
0000
0018
0018
0010
01F0
0FF0
3E00
7800
7000
E000
E000
E000
E000
600C
701C
383C
1FF8
03C0
ENDCHAR

STARTCHAR Agrave
ENCODING 192
SWIDTH 700 0
DWIDTH 23 0
BBX 23 29 0 0
BITMAP
000600
000780
0007C0
0001E0
000060
000000
0001C0
0003C0
0003C0
0006C0
000CC0
000CE0
0018E0
0018E0
0030E0
0070E0
006060
00E070
00C070
01FFF0
01FFF0
030070
070030
060038
0C0038
0C0038
180038
3C007C
FF01FE
ENDCHAR

STARTCHAR Aacute
ENCODING 193
SWIDTH 700 0
DWIDTH 23 0
BBX 23 29 0 0
BITMAP
000060
0000E0
0001E0
0003C0
000600
000000
0001C0
0003C0
0003C0
0006C0
000CC0
000CE0
0018E0
0018E0
0030E0
0070E0
006060
00E070
00C070
01FFF0
01FFF0
030070
070030
060038
0C0038
0C0038
180038
3C007C
FF01FE
ENDCHAR

STARTCHAR Acircumflex
ENCODING 194
SWIDTH 700 0
DWIDTH 23 0
BBX 23 28 0 0
BITMAP
0001C0
0007E0
001E38
000000
000000
0001C0
0003C0
0003C0
0006C0
000CC0
000CE0
0018E0
0018E0
0030E0
0070E0
006060
00E070
00C070
01FFF0
01FFF0
030070
070030
060038
0C0038
0C0038
180038
3C007C
FF01FE
ENDCHAR

STARTCHAR Atilde
ENCODING 195
SWIDTH 700 0
DWIDTH 23 0
BBX 23 28 0 0
BITMAP
000788
000FF8
0011E0
000000
000000
0001C0
0003C0
0003C0
0006C0
000CC0
000CE0
0018E0
0018E0
0030E0
0070E0
006060
00E070
00C070
01FFF0
01FFF0
030070
070030
060038
0C0038
0C0038
180038
3C007C
FF01FE
ENDCHAR

STARTCHAR Adieresis
ENCODING 196
SWIDTH 700 0
DWIDTH 23 0
BBX 24 28 0 0
BITMAP
000638
000F78
000F78
000630
000000
0001C0
0003C0
0003C0
0006C0
0006E0
000CE0
000CE0
0018E0
0038E0
003060
006070
006070
00C070
00FFF0
01FFF0
038030
030038
060038
060038
0C0038
1C0038
3C003C
FF01FF
ENDCHAR

STARTCHAR Aring
ENCODING 197
SWIDTH 700 0
DWIDTH 23 0
BBX 24 30 0 0
BITMAP
0001E0
000330
000210
000210
000330
0001E0
000000
0001C0
0003C0
0003E0
0006E0
0006E0
000CE0
000CE0
0018E0
003870
003070
006070
006070
00C070
00FFF0
01FFF8
038038
030038
060038
060038
0C0038
1C001C
3C003C
FF01FF
ENDCHAR

STARTCHAR AE
ENCODING 198
SWIDTH 1220 0
DWIDTH 40 0
BBX 42 23 0 0
BITMAP
0001FFFFFF80
00003FFFFF80
000070700380
000060700180
0000E07000C0
0001C07000C0
000380601840
000300E01800
000600E03000
000C00E03000
001FFFFFF000
003FFFFFF000
003001C06000
006001C06000
00E001C06000
01C0018060C0
038003800180
070003800380
070003800300
0E0003000700
1C0007001E00
FF803FFFFE00
FF003FFFFC00
ENDCHAR

STARTCHAR Ccedilla
ENCODING 199
SWIDTH 720 0
DWIDTH 24 0
BBX 21 29 4 -6
BITMAP
003F00
01FFD8
03C0F8
0F0078
1E0038
3C0018
380018
780008
700000
F00000
F00000
E00000
E00000
E00000
E00000
E00000
F00010
700030
780060
3C01C0
1E0700
0FFE00
03F800
008000
01E000
003000
023000
032000
01C000
ENDCHAR

STARTCHAR Egrave
ENCODING 200
SWIDTH 680 0
DWIDTH 22 0
BBX 23 29 1 0
BITMAP
000C00
000F00
000F80
0003C0
0000C0
000000
07FFFC
01FFFC
00E01C
00C00E
01C006
01C002
01C0C2
01C0C0
0380C0
038180
03FF80
03FF80
030380
070100
070100
070306
07000C
0E000C
0E0018
0E0038
0E00F0
7FFFF0
FFFFE0
ENDCHAR

STARTCHAR Eacute
ENCODING 201
SWIDTH 680 0
DWIDTH 22 0
BBX 23 29 1 0
BITMAP
0000C0
0001C0
0003C0
000700
000C00
000000
07FFFC
01FFFC
00E01C
00C00E
01C006
01C002
01C0C2
01C0C0
0380C0
038180
03FF80
03FF80
030380
070100
070100
070306
07000C
0E000C
0E0018
0E0038
0E00F0
7FFFF0
FFFFE0
ENDCHAR

STARTCHAR Ecircumflex
ENCODING 202
SWIDTH 680 0
DWIDTH 22 0
BBX 23 28 1 0
BITMAP
000380
000FC0
003C70
000000
000000
07FFFC
01FFFC
00E01C
00C00E
01C006
01C002
01C0C2
01C0C0
0380C0
038180
03FF80
03FF80
030380
070100
070100
070306
07000C
0E000C
0E0018
0E0038
0E00F0
7FFFF0
FFFFE0
ENDCHAR

STARTCHAR Edieresis
ENCODING 203
SWIDTH 680 0
DWIDTH 22 0
BBX 23 28 2 0
BITMAP
0018E0
003DE0
003DE0
0018C0
000000
07FFF8
03FFF8
01C03C
01C01C
01C00C
018006
038084
038180
038180
030380
07FF00
07FF00
070700
070300
060200
0E020C
0E0008
0E0018
0E0038
1C0070
1C01F0
FFFFE0
FFFFE0
ENDCHAR

STARTCHAR Igrave
ENCODING 204
SWIDTH 320 0
DWIDTH 11 0
BBX 14 29 1 0
BITMAP
01C0
01E0
00F0
0038
0008
0000
07FC
01E0
01C0
01C0
01C0
01C0
0380
0380
0380
0380
0300
0700
0700
0700
0700
0600
0E00
0E00
0E00
0E00
1C00
3E00
FF80
ENDCHAR

STARTCHAR Iacute
ENCODING 205
SWIDTH 320 0
DWIDTH 11 0
BBX 14 29 1 0
BITMAP
000C
003C
007C
00F0
0080
0000
07FC
01E0
01C0
01C0
01C0
01C0
0380
0380
0380
0380
0300
0700
0700
0700
0700
0600
0E00
0E00
0E00
0E00
1C00
3E00
FF80
ENDCHAR

STARTCHAR Icircumflex
ENCODING 206
SWIDTH 320 0
DWIDTH 11 0
BBX 15 29 1 0
BITMAP
0020
00F0
03FC
070E
0000
0000
07FC
01E0
01C0
01C0
01C0
01C0
0380
0380
0380
0380
0300
0700
0700
0700
0700
0600
0E00
0E00
0E00
0E00
1C00
3E00
FF80
ENDCHAR

STARTCHAR Idieresis
ENCODING 207
SWIDTH 320 0
DWIDTH 11 0
BBX 15 29 1 0
BITMAP
018E
03DE
03DE
038C
0000
0000
07FC
00E0
01C0
01C0
01C0
01C0
01C0
0380
0380
0380
0380
0300
0700
0700
0700
0700
0600
0E00
0E00
0E00
0E00
1E00
FF80
ENDCHAR

STARTCHAR Gbreve
ENCODING 208
SWIDTH 760 0
DWIDTH 25 0
BBX 24 27 4 0
BITMAP
003070
001FE0
000780
000000
003F00
00FFC8
03C0F8
070038
0E0018
1C0018
38000C
78000C
700000
700000
F00000
F00000
E003FF
E00078
E00070
E00070
F00070
F00070
7800E0
3801E0
1E07E0
0FFE60
03F040
ENDCHAR

STARTCHAR Ntilde
ENCODING 209
SWIDTH 720 0
DWIDTH 24 0
BBX 27 28 1 0
BITMAP
0003C400
000FFC00
00007000
00000000
00000000
07F01FE0
01F80780
00D80300
00980600
019C0600
019C0600
018C0600
018E0600
030E0C00
03070C00
03070C00
03070C00
02038800
06039800
06039800
0601D800
0601D800
0C01F000
0C00F000
0C00F000
0C00F000
1C006000
FF006000
ENDCHAR

STARTCHAR Ograve
ENCODING 210
SWIDTH 760 0
DWIDTH 25 0
BBX 23 28 4 0
BITMAP
000E00
000F00
000780
0001C0
000040
003F80
00FFE0
03C0F0
070038
0E001C
1C001C
38000E
78000E
70000E
70000E
F0000E
E0000E
E0001E
E0001C
E0001C
E0003C
E00038
700070
7000E0
3801C0
1E0780
0FFE00
01F000
ENDCHAR

STARTCHAR Oacute
ENCODING 211
SWIDTH 760 0
DWIDTH 25 0
BBX 23 28 4 0
BITMAP
0000E0
0001E0
0003C0
000700
000400
003F80
00FFE0
03C0F0
070038
0E001C
1C001C
38000E
78000E
70000E
70000E
F0000E
E0000E
E0001E
E0001C
E0001C
E0003C
E00038
700070
7000E0
3801C0
1E0780
0FFE00
01F000
ENDCHAR

STARTCHAR Ocircumflex
ENCODING 212
SWIDTH 760 0
DWIDTH 25 0
BBX 23 28 4 0
BITMAP
000100
0007C0
001EF0
003020
000000
003F80
00FFE0
03C0F0
070038
0E001C
1C001C
38000E
78000E
70000E
70000E
F0000E
E0000E
E0001E
E0001C
E0001C
E0003C
E00038
700070
7000E0
3801C0
1E0780
0FFE00
01F000
ENDCHAR

STARTCHAR Otilde
ENCODING 213
SWIDTH 760 0
DWIDTH 25 0
BBX 23 28 4 0
BITMAP
000F10
001FE0
0023C0
000000
000000
003F80
00FFE0
03C0F0
070038
0E001C
1C001C
38000E
78000E
70000E
70000E
F0000E
E0000E
E0001E
E0001C
E0001C
E0003C
E00038
700070
7000E0
3801C0
1E0780
0FFE00
01F000
ENDCHAR

STARTCHAR Odieresis
ENCODING 214
SWIDTH 760 0
DWIDTH 25 0
BBX 23 28 3 0
BITMAP
000C60
001EF0
001EF0
001C60
000000
003F80
00FFE0
03E070
078038
0F001C
1C001C
3C000E
78000E
78000E
70000E
F0000E
F0000E
E0001E
E0001E
E0001C
E0003C
F00038
700078
7800F0
3801E0
1E0780
0FFF00
01F800
ENDCHAR

STARTCHAR multiply
ENCODING 215
SWIDTH 600 0
DWIDTH 20 0
BBX 14 14 5 4
BITMAP
C008
601C
3038
1870
0CE0
07C0
0380
0780
0EC0
1C60
3830
F018
600C
2004
ENDCHAR

STARTCHAR Oslash
ENCODING 216
SWIDTH 760 0
DWIDTH 25 0
BBX 27 23 2 0
BITMAP
000FE020
003FF860
00F03DC0
01C00F80
03800700
07000F00
0F003B80
1E007380
1C00C380
1C018380
3C070380
380E0380
38180780
38300780
38E00700
39C00F00
3D000E00
1E001C00
1C003800
3E007000
7781E000
C3FF8000
807C0000
ENDCHAR

STARTCHAR Ugrave
ENCODING 217
SWIDTH 720 0
DWIDTH 24 0
BBX 24 29 5 0
BITMAP
003800
003C00
003E00
000F00
000100
000000
FFC0FF
1E0038
1C0030
1C0030
180030
380030
380060
380060
380060
700060
7000C0
7000C0
7000C0
6000C0
E00080
E00180
E00180
E00300
E00300
700600
7C1C00
1FF800
0FE000
ENDCHAR

STARTCHAR Uacute
ENCODING 218
SWIDTH 720 0
DWIDTH 24 0
BBX 24 29 5 0
BITMAP
000180
000780
000F80
001E00
001000
000000
FFC0FF
1E0038
1C0030
1C0030
180030
380030
380060
380060
380060
700060
7000C0
7000C0
7000C0
6000C0
E00080
E00180
E00180
E00300
E00300
700600
7C1C00
1FF800
0FE000
ENDCHAR

STARTCHAR Ucircumflex
ENCODING 219
SWIDTH 720 0
DWIDTH 24 0
BBX 24 28 5 0
BITMAP
001E00
007F00
00E1C0
000000
000000
FFC0FF
1E0038
1C0030
1C0030
180030
380030
380060
380060
380060
700060
7000C0
7000C0
7000C0
6000C0
E00080
E00180
E00180
E00300
E00300
700600
7C1C00
1FF800
0FE000
ENDCHAR

STARTCHAR Udieresis
ENCODING 220
SWIDTH 720 0
DWIDTH 24 0
BBX 24 29 5 0
BITMAP
0031C0
007BC0
007BC0
007180
000000
000000
FFC1FF
1E0038
1C0030
1C0030
180030
380060
380060
380060
380060
7000C0
7000C0
7000C0
7000C0
6000C0
E00180
E00180
E00180
E00300
F00300
700600
7C1C00
1FF800
07E000
ENDCHAR

STARTCHAR Idotaccent
ENCODING 221
SWIDTH 320 0
DWIDTH 11 0
BBX 14 29 1 0
BITMAP
0070
00F0
00F0
00E0
0000
0000
07FC
01E0
01C0
01C0
01C0
01C0
0180
0380
0380
0380
0380
0700
0700
0700
0700
0600
0E00
0E00
0E00
0E00
1E00
3E00
FF80
ENDCHAR

STARTCHAR Scedilla
ENCODING 222
SWIDTH 640 0
DWIDTH 21 0
BBX 20 29 3 -6
BITMAP
00FC10
03FFB0
0701F0
0E00F0
0C0070
1C0030
1C0030
1E0000
0F0000
07E000
03F800
00FF00
001F80
0003C0
4001E0
4000E0
E000E0
E000E0
F001C0
F801C0
FE0780
CFFF00
83F800
008000
01E000
003000
023000
026000
03C000
ENDCHAR

STARTCHAR germandbls
ENCODING 223
SWIDTH 620 0
DWIDTH 20 0
BBX 24 29 -3 -5
BITMAP
0000F0
0003FC
000E0E
000C07
001C07
001807
00387E
0038C0
01F980
01F180
0071C0
0070E0
0070F8
00603C
00601E
00E007
00E007
00C003
00C003
01D807
01DC06
01DE0C
018FF8
0181C0
038000
030000
E70000
FC0000
780000
ENDCHAR

STARTCHAR agrave
ENCODING 224
SWIDTH 620 0
DWIDTH 20 0
BBX 19 23 3 0
BITMAP
002000
007000
007800
003C00
000600
000000
000000
01E180
07FB00
1E0F00
1C0700
380700
700600
700600
E00E00
E00E00
E01E00
E01C00
E02C00
E06C60
70DCC0
3F8F80
1E0700
ENDCHAR

STARTCHAR aacute
ENCODING 225
SWIDTH 620 0
DWIDTH 20 0
BBX 19 23 3 0
BITMAP
000200
000E00
001E00
003C00
007000
000000
000000
01E180
07FB00
1E0F00
1C0700
380700
700600
700600
E00E00
E00E00
E01E00
E01C00
E02C00
E06C60
70DCC0
3F8F80
1E0700
ENDCHAR

STARTCHAR acircumflex
ENCODING 226
SWIDTH 620 0
DWIDTH 20 0
BBX 19 22 3 0
BITMAP
001000
007C00
01EE00
010100
000000
000000
01E180
07FB00
1E0F00
1C0700
380700
700600
700600
E00E00
E00E00
E01E00
E01C00
E02C00
E06C60
70DCC0
3F8F80
1E0700
ENDCHAR

STARTCHAR atilde
ENCODING 227
SWIDTH 620 0
DWIDTH 20 0
BBX 19 22 3 0
BITMAP
007880
00FF80
001F00
000000
000000
000000
01E180
07FB00
1E0F00
1C0700
380700
700600
700600
E00E00
E00E00
E01E00
E01C00
E02C00
E06C60
70DCC0
3F8F80
1E0700
ENDCHAR

STARTCHAR adieresis
ENCODING 228
SWIDTH 620 0
DWIDTH 20 0
BBX 19 22 3 0
BITMAP
007380
00F780
00F780
006300
000000
000000
01F180
07FF00
0E0700
1C0300
380300
700600
700600
600600
E00E00
E00E00
E01C00
E02400
E06C60
70DCC0
3F8F80
1E0700
ENDCHAR

STARTCHAR aring
ENCODING 229
SWIDTH 620 0
DWIDTH 20 0
BBX 19 24 3 0
BITMAP
003C00
006600
004200
004200
006600
003C00
000000
000000
01F180
07FF00
1E0F00
1C0300
380700
700600
700600
600E00
E00E00
E01E00
E01C00
E02400
E06C60
70DCC0
3F8F80
1E0700
ENDCHAR

STARTCHAR ae
ENCODING 230
SWIDTH 880 0
DWIDTH 29 0
BBX 27 16 3 0
BITMAP
01F00F00
07FC7FC0
1E0EE0E0
1C07C0E0
180780E0
180701C0
000F0380
07FE3E00
3F0FE000
780E0000
E00E0000
E01E0040
E03600C0
F0E70380
7FC3FE00
1E00F800
ENDCHAR

STARTCHAR ccedilla
ENCODING 231
SWIDTH 480 0
DWIDTH 16 0
BBX 15 22 3 -6
BITMAP
01F0
07FC
0E0E
1C0E
380E
700C
7000
E000
E000
E000
E000
E004
701C
7838
3FE0
0F80
0400
0F00
0180
1180
1100
1E00
ENDCHAR

STARTCHAR egrave
ENCODING 232
SWIDTH 540 0
DWIDTH 18 0
BBX 16 22 3 0
BITMAP
0070
0078
003C
0006
0001
0000
00F8
03FE
0F07
1C07
3807
700E
703C
E3F0
FF00
E000
E000
E002
700E
7838
3FF0
0F80
ENDCHAR

STARTCHAR eacute
ENCODING 233
SWIDTH 540 0
DWIDTH 18 0
BBX 16 22 3 0
BITMAP
000F
001E
003C
0070
0020
0000
00F8
03FE
0F07
1C07
3807
700E
703C
E3F0
FF00
E000
E000
E002
700E
7838
3FF0
0F80
ENDCHAR

STARTCHAR ecircumflex
ENCODING 234
SWIDTH 540 0
DWIDTH 18 0
BBX 17 22 3 0
BITMAP
000800
003E00
01F700
008180
000000
000000
00F800
03FE00
0F0700
1C0700
380700
700E00
703C00
E3F000
FF0000
E00000
E00000
E00200
700E00
783800
3FF000
0F8000
ENDCHAR

STARTCHAR edieresis
ENCODING 235
SWIDTH 540 0
DWIDTH 18 0
BBX 17 22 3 0
BITMAP
007380
00F780
00F780
00E300
000000
000000
00F800
03FE00
0F0700
1C0700
380700
700E00
703C00
E3F000
FF0000
E00000
E00000
E00200
700E00
783800
3FF000
0F8000
ENDCHAR

STARTCHAR igrave
ENCODING 236
SWIDTH 280 0
DWIDTH 9 0
BBX 10 23 3 0
BITMAP
0400
0E00
0F00
0780
01C0
0000
0000
0C00
FC00
FC00
1800
3800
3800
3000
7000
7000
7000
6000
E000
E100
E600
7C00
3000
ENDCHAR

STARTCHAR iacute
ENCODING 237
SWIDTH 280 0
DWIDTH 9 0
BBX 10 23 3 0
BITMAP
0040
01C0
03C0
0780
0E00
0000
0000
0C00
FC00
FC00
1800
3800
3800
3000
7000
7000
7000
6000
E000
E100
E600
7C00
3000
ENDCHAR

STARTCHAR icircumflex
ENCODING 238
SWIDTH 280 0
DWIDTH 9 0
BBX 12 22 3 0
BITMAP
0100
0780
1CF0
3020
0000
0000
0C00
FC00
FC00
1800
3800
3800
3000
7000
7000
7000
6000
E000
E100
E600
7C00
3000
ENDCHAR

STARTCHAR idieresis
ENCODING 239
SWIDTH 280 0
DWIDTH 9 0
BBX 11 22 4 0
BITMAP
18E0
3DE0
3DE0
18C0
0000
0000
0C00
FC00
F800
3800
3800
3800
3000
7000
7000
7000
6000
E000
E200
E600
7C00
3000
ENDCHAR

STARTCHAR gbreve
ENCODING 240
SWIDTH 560 0
DWIDTH 18 0
BBX 18 29 2 -7
BITMAP
00C1C0
007F80
003F00
000000
000000
000000
00F8C0
03FEC0
0703C0
0E0180
1C0180
380380
380380
700300
700700
700F00
700F00
701B00
703600
386E00
1FCE00
0F0E00
000C00
001C00
C01800
E03800
F07000
7FC000
1F0000
ENDCHAR

STARTCHAR ntilde
ENCODING 241
SWIDTH 620 0
DWIDTH 20 0
BBX 19 22 3 0
BITMAP
003C40
007F80
008F00
000000
000000
000000
0C3C00
FCFE00
FD8700
1B0700
1E0700
3C0600
3C0600
380E00
380E00
700E00
700C00
701C00
601C60
601CC0
E00F80
E00700
ENDCHAR

STARTCHAR ograve
ENCODING 242
SWIDTH 540 0
DWIDTH 18 0
BBX 16 23 3 0
BITMAP
0040
00E0
00F0
0078
001C
0000
0000
01F0
07FC
1E0E
3C0E
3807
7007
7007
E007
E007
E00E
E00E
E01C
701C
7878
3FE0
0780
ENDCHAR

STARTCHAR oacute
ENCODING 243
SWIDTH 540 0
DWIDTH 18 0
BBX 16 23 3 0
BITMAP
0004
001C
003C
0078
00E0
0000
0000
01F0
07FC
1E0E
3C0E
3807
7007
7007
E007
E007
E00E
E00E
E01C
701C
7878
3FE0
0780
ENDCHAR

STARTCHAR ocircumflex
ENCODING 244
SWIDTH 540 0
DWIDTH 18 0
BBX 16 22 3 0
BITMAP
0010
007C
03EE
0103
0000
0000
01F0
07FC
1E0E
3C0E
3807
7007
7007
E007
E007
E00E
E00E
E01C
701C
7878
3FE0
0780
ENDCHAR

STARTCHAR otilde
ENCODING 245
SWIDTH 540 0
DWIDTH 18 0
BBX 16 22 3 0
BITMAP
00F1
01FF
023E
0000
0000
0000
01F0
07FC
1E0E
3C0E
3807
7007
7007
E007
E007
E00E
E00E
E01C
701C
7878
3FE0
0780
ENDCHAR

STARTCHAR odieresis
ENCODING 246
SWIDTH 540 0
DWIDTH 18 0
BBX 15 22 3 0
BITMAP
01CE
03DE
03DE
018C
0000
0000
01E0
0FF8
1C1C
380C
300E
700E
600E
E00E
E00E
E00C
E01C
E01C
7038
7070
3FE0
0F00
ENDCHAR

STARTCHAR divide
ENCODING 247
SWIDTH 600 0
DWIDTH 20 0
BBX 15 14 5 4
BITMAP
0380
0380
0380
0000
0000
0000
FFFE
FFFE
0000
0000
0000
0380
0380
0380
ENDCHAR

STARTCHAR oslash
ENCODING 248
SWIDTH 540 0
DWIDTH 18 0
BBX 19 16 2 0
BITMAP
00F860
03FEC0
0F0780
1C0700
1C0F80
381B80
383380
70E380
718380
730700
760700
7C0E00
381E00
7C3C00
DFF000
83C000
ENDCHAR

STARTCHAR ugrave
ENCODING 249
SWIDTH 620 0
DWIDTH 20 0
BBX 19 22 3 0
BITMAP
007800
003C00
003E00
000700
000100
000000
040000
3C0380
FC0300
1C0700
180700
180700
380600
380E00
300E00
301E00
702C00
703C00
706C20
71DCC0
7F8F80
1E0700
ENDCHAR

STARTCHAR uacute
ENCODING 250
SWIDTH 620 0
DWIDTH 20 0
BBX 19 22 3 0
BITMAP
000700
000F00
001E00
007800
002000
000000
040000
3C0380
FC0300
1C0700
180700
180700
380600
380E00
300E00
301E00
703C00
703C00
706C20
71DCC0
7F8F80
1E0700
ENDCHAR

STARTCHAR ucircumflex
ENCODING 251
SWIDTH 620 0
DWIDTH 20 0
BBX 19 22 3 0
BITMAP
000800
001E00
007700
00C180
000000
000000
040000
3C0380
FC0300
1C0700
180700
180700
380600
380E00
300E00
301E00
703C00
703C00
706C20
71DCC0
7F8F80
1E0700
ENDCHAR

STARTCHAR udieresis
ENCODING 252
SWIDTH 620 0
DWIDTH 20 0
BBX 19 22 3 0
BITMAP
007380
00F780
00F780
00E300
000000
000000
040000
3C0380
FC0300
1C0700
180700
180700
380600
380E00
300E00
301E00
702C00
703C00
706C20
71DCC0
7F8F80
1E0700
ENDCHAR

STARTCHAR dotlessi
ENCODING 253
SWIDTH 280 0
DWIDTH 9 0
BBX 8 16 3 0
BITMAP
0C
FC
FC
18
38
38
30
70
70
70
60
E0
E1
E6
7C
30
ENDCHAR

STARTCHAR scedilla
ENCODING 254
SWIDTH 540 0
DWIDTH 18 0
BBX 16 22 2 -6
BITMAP
01F0
0FFE
1C0F
1C07
1C03
1C00
1F80
07F0
01FC
003E
000E
E006
F006
700E
3C1C
0FF0
0300
03C0
0060
0460
0CC0
0780
ENDCHAR

STARTCHAR ydieresis
ENCODING 255
SWIDTH 600 0
DWIDTH 20 0
BBX 18 29 2 -7
BITMAP
0031C0
007BC0
007BC0
007180
000000
000000
030000
0E01C0
7E01C0
0E0180
0E0180
0C0380
0C0380
1C0300
1C0700
180700
180F00
381B00
383600
386600
1FCE00
0F0E00
000C00
001C00
401C00
E03800
F07000
7FE000
0F0000
ENDCHAR
ENDFONT
